<?xml version="1.0" encoding="iso-8859-1"?>
<!-- Generator: Adobe Illustrator 19.0.0, SVG Export Plug-In . SVG Version: 6.00 Build 0)  -->
<svg version="1.1" id="Capa_1" xmlns="http://www.w3.org/2000/svg" xmlns:xlink="http://www.w3.org/1999/xlink" x="0px" y="0px"
	 viewBox="0 0 512 512" style="enable-background:new 0 0 512 512;" xml:space="preserve">
<path style="fill:#EE3124;" d="M5.563,87.479l210.083,380.177c7.854,14.198,22.813,23.01,39.021,23.01h2.667
	c16.208,0,31.166-8.813,39.021-23.021L506.438,87.479C510.083,80.885,512,73.438,512,65.917c0-24.583-20-44.583-44.583-44.583
	H44.583C20,21.333,0,41.333,0,65.917C0,73.438,1.917,80.885,5.563,87.479z"/>
<path style="fill:#FFFFFF;" d="M452.583,64H59.417c-3.771,0-7.271,2-9.188,5.25s-1.979,7.271-0.146,10.573l196.583,355.74
	c1.875,3.396,5.448,5.51,9.333,5.51c3.885,0,7.458-2.115,9.333-5.51l196.583-355.74c1.833-3.302,1.771-7.323-0.146-10.573
	S456.354,64,452.583,64z"/>
<linearGradient id="SVGID_1_" gradientUnits="userSpaceOnUse" x1="-47.2705" y1="642.6408" x2="-27.2024" y2="633.2827" gradientTransform="matrix(21.3333 0 0 -21.3333 996.3334 13791.667)">
	<stop  offset="0" style="stop-color:#FFFFFF;stop-opacity:0.2"/>
	<stop  offset="1" style="stop-color:#FFFFFF;stop-opacity:0"/>
</linearGradient>
<path style="fill:url(#SVGID_1_);" d="M5.563,87.479l210.083,380.177c7.854,14.198,22.813,23.01,39.021,23.01h2.667
	c16.208,0,31.166-8.813,39.021-23.021L506.438,87.479C510.083,80.885,512,73.438,512,65.917c0-24.583-20-44.583-44.583-44.583
	H44.583C20,21.333,0,41.333,0,65.917C0,73.438,1.917,80.885,5.563,87.479z"/>
<g>
</g>
<g>
</g>
<g>
</g>
<g>
</g>
<g>
</g>
<g>
</g>
<g>
</g>
<g>
</g>
<g>
</g>
<g>
</g>
<g>
</g>
<g>
</g>
<g>
</g>
<g>
</g>
<g>
</g>
</svg>
