<?xml version="1.0" encoding="UTF-8"?>
<svg viewBox="0 0 644.41083 688.69507" xmlns="http://www.w3.org/2000/svg">
 <path transform="matrix(.99557 0 0 .99557 244.69 -244.07)" d="m400 568.79c0 177.91-144.23 322.14-322.14 322.14s-322.14-144.23-322.14-322.14 144.23-322.14 322.14-322.14 322.14 144.23 322.14 322.14z" fill="#fff" stroke="#000" stroke-width="3.0134"/>
 <path transform="matrix(.8145 0 0 .8145 258.79 -141.08)" d="m400 568.79c0 177.91-144.23 322.14-322.14 322.14s-322.14-144.23-322.14-322.14 144.23-322.14 322.14-322.14 322.14 144.23 322.14 322.14z" fill="#00f" stroke="#f00" stroke-width="110.5"/>
 <path transform="matrix(.70711 -.70711 .70711 .70711 -17.208 -75.584)" d="m-72.304 302.39h54.184v444.45h-54.184z" fill="#f00"/>
 <path transform="matrix(.70711 .70711 -.70711 .70711 -17.208 -75.584)" d="m497.53-177.01h54.184v444.45h-54.184z" fill="#f00"/>
</svg>
