<?xml version="1.0" encoding="UTF-8"?>
<svg viewBox="0 0 670.56122 752.11182" xmlns="http://www.w3.org/2000/svg">
 <path transform="matrix(.70711 .70711 -.70711 .70711 634.29 -36.239)" d="m-164.58 228.29h431.7a29.994 29.994 0 0 1 29.994 29.994v431.7a29.994 29.994 0 0 1 -29.994 29.994h-431.7a29.994 29.994 0 0 1 -29.994 -29.994v-431.7a29.994 29.994 0 0 1 29.994 -29.994"/>
 <path transform="matrix(.70711 .70711 -.70711 .70711 634.29 -36.239)" d="m-162.41 241.72h427.38a18.721 18.721 0 0 1 18.721 18.721v427.38a18.721 18.721 0 0 1 -18.721 18.721h-427.38a18.721 18.721 0 0 1 -18.721 -18.721v-427.38a18.721 18.721 0 0 1 18.721 -18.721" fill="#fff"/>
 <path transform="matrix(.70711 .70711 -.70711 .70711 634.29 -36.239)" d="m-96.509 326.35h295.57v295.57h-295.57z" fill="#ff0" stroke="#000" stroke-width="12.759"/>
</svg>
