<?xml version="1.0" encoding="UTF-8"?>
<svg width="50" height="50" clip-path="url(#a)" version="1.2" viewBox="0 0 24823 24823" xml:space="preserve" xmlns="http://www.w3.org/2000/svg">
 <defs>
  <clipPath id="a">
   <rect width="25576" height="25576"/>
  </clipPath>
  </defs>
 <g transform="translate(-376,-376.5)">
        <path d="m4057 4057c-1607 1608-2607 3339-3196 5536-588 2194-588 4196 0 6390 589 2197 1589 3928 3196 5536 1608 1607 3339 2607 5535 3195 2195 589 4196 588 6391 1 2196-589 3928-1589 5536-3196 1607-1608 2607-3340 3195-5535 588-2196 588-4196 0-6392-588-2195-1588-3927-3195-5535-1608-1607-3340-2607-5536-3196-2195-587-4196-588-6391 1-2196 588-3927 1588-5535 3195z" fill="#fff"/>
        <path d="m4057 4057c-1607 1608-2607 3339-3196 5536-588 2194-588 4196 0 6390 589 2197 1589 3928 3196 5536 1608 1607 3339 2607 5535 3195 2195 589 4196 588 6391 1 2196-589 3928-1589 5536-3196 1607-1608 2607-3340 3195-5535 588-2196 588-4196 0-6392-588-2195-1588-3927-3195-5535-1608-1607-3340-2607-5536-3196-2195-587-4196-588-6391 1-2196 588-3927 1588-5535 3195z" fill="none" stroke="#000" stroke-width="88"/>
      </g><g transform="translate(-376,-376.5)" fill="#2b2c7c">
       <g fill="#2b2c7c">
        <path d="m4376 4376c-1548 1549-2512 3218-3078 5333-567 2115-567 4043 0 6158 566 2115 1530 3784 3078 5333 1549 1548 3218 2511 5333 3078s4042 566 6157 0c2115-567 3784-1530 5333-3079s2512-3217 3078-5332c567-2116 567-4042 0-6158-566-2115-1529-3783-3078-5332s-3218-2512-5333-3079c-2115-566-4042-567-6157 0s-3784 1530-5333 3078z" fill="#2b2c7c"/>
       </g>
      </g>
<path transform="scale(28.222)" d="m594.22 135.47c-0.73 0.06-1.52 0.25-2.31 0.56-132 33.72-0.34 0.37-139.88 35.75 98.35 107.67 27.62 30.54 99.16 107.1 1.1 1.19 2.3 1.99 3.59 2.37 5.25 1.53 8.92-1.37 11.06-8.69l0.72-2.4 1.19-30.88c77.28 50.64 118.97 123.19 118.97 205.28 0 28.94-5.19 56.68-14.69 82.41l55.22 24.19c12.8-33.15 19.81-69.06 19.81-106.6 0-115.08-65.86-215.08-162.62-265.81l16.37-29.41 1.1-3.78c1.48-5.07-0.4-8.37-5.63-9.9-0.65-0.19-1.33-0.26-2.06-0.19z" color="#000000" fill="#fff"/><path transform="scale(28.222)" d="m669.41 587.75c-142.45 31.23-40.29 8.62-142.38 32.22-1.58 0.35-2.87 0.97-3.84 1.91-3.96 3.77-3.3 8.41 1.97 13.93l1.75 1.81 31.09 19.63c-35.13 19.21-75.45 31.41-118.31 31.41-77.19 0-146.11-36.69-191.41-91.04l-45.59 38.79c56.37 66.83 141.61 109.4 237 109.4 58.34 0 112.9-15.92 159.37-43.59l15.28 25.56 2.69 2.81c3.65 3.83 7.46 3.89 11.41 0.13 0.98-0.94 1.58-2.32 1.84-4 36.9-131.15-0.11-0.47 39.13-138.97z" color="#000000" fill="#fff"/><path transform="scale(28.222)" d="m393.19 146.72c-147.6 21.96-260.74 146.8-260.88 297.56l-29.19-0.53-3.839 0.81c-5.17 1.08-7.205 4.26-6.093 9.6 0.277 1.33 1.111 2.57 2.406 3.68 91.856 100.62 0.449 0.14 97.316 106.63 48.74-137.44 13.97-38.74 47.87-137.88 0.54-1.53 0.68-2.96 0.41-4.28-1.12-5.35-5.38-7.24-12.85-5.69l-2.5 0.5-32.9 15.97c5.46-114.81 92.51-208.73 205.62-227.31 0 0 0.45 0.03-5.37-59.06z" fill="#fff"/></svg>
